<svg xmlns="http://www.w3.org/2000/svg" xmlns:xlink="http://www.w3.org/1999/xlink" width="500" zoomAndPan="magnify" viewBox="0 0 375 374.999991" height="500" preserveAspectRatio="xMidYMid meet" version="1.0"><defs><g/><clipPath id="42dd9072f6"><path d="M 27.96875 182.828125 L 121.660156 182.828125 L 121.660156 230.308594 L 27.96875 230.308594 Z M 27.96875 182.828125 " clip-rule="nonzero"/></clipPath><clipPath id="a8784239b8"><path d="M 27.96875 126.925781 L 121.660156 126.925781 L 121.660156 174.371094 L 27.96875 174.371094 Z M 27.96875 126.925781 " clip-rule="nonzero"/></clipPath></defs><g clip-path="url(#42dd9072f6)"><path fill="#5e17eb" d="M 103.496094 195.175781 L 74.8125 211.734375 L 46.132812 195.175781 L 27.96875 184.6875 L 27.96875 196.703125 C 27.96875 202.246094 30.925781 207.367188 35.726562 210.140625 L 67.058594 228.226562 C 71.855469 231 77.769531 231 82.570312 228.226562 L 113.902344 210.140625 C 118.703125 207.367188 121.660156 202.246094 121.660156 196.703125 L 121.660156 193.351562 L 103.496094 182.863281 L 103.496094 195.175781 " fill-opacity="1" fill-rule="nonzero"/></g><g clip-path="url(#a8784239b8)"><path fill="#ff66c4" d="M 113.902344 147.089844 L 82.570312 129.003906 C 77.769531 126.230469 71.855469 126.230469 67.058594 129.003906 L 35.726562 147.089844 C 30.925781 149.863281 27.96875 154.984375 27.96875 160.527344 L 27.96875 163.882812 L 46.132812 174.367188 L 46.132812 162.054688 L 74.8125 145.496094 L 121.660156 172.542969 L 121.660156 160.527344 C 121.660156 154.984375 118.703125 149.863281 113.902344 147.089844 " fill-opacity="1" fill-rule="nonzero"/></g><g fill="#000000" fill-opacity="1"><g transform="translate(128.218326, 193.617892)"><g><path d="M 22.15625 -17.8125 L 22.15625 -28.5625 L 27.78125 -28.5625 L 27.78125 0 L 22.15625 0 L 22.15625 -13.015625 L 9.359375 -13.015625 L 9.359375 0 L 3.71875 0 L 3.71875 -28.5625 L 9.359375 -28.5625 L 9.359375 -17.8125 Z M 22.15625 -17.8125 "/></g></g></g><g fill="#000000" fill-opacity="1"><g transform="translate(159.719159, 193.617892)"><g><path d="M 8.40625 0.40625 C 7.019531 0.40625 5.816406 0.15625 4.796875 -0.34375 C 3.785156 -0.851562 3.003906 -1.597656 2.453125 -2.578125 C 1.910156 -3.566406 1.640625 -4.753906 1.640625 -6.140625 C 1.640625 -7.410156 1.910156 -8.476562 2.453125 -9.34375 C 3.003906 -10.207031 3.851562 -10.914062 5 -11.46875 C 6.144531 -12.03125 7.644531 -12.457031 9.5 -12.75 C 10.78125 -12.957031 11.753906 -13.1875 12.421875 -13.4375 C 13.097656 -13.6875 13.550781 -13.96875 13.78125 -14.28125 C 14.019531 -14.59375 14.140625 -14.988281 14.140625 -15.46875 C 14.140625 -16.15625 13.898438 -16.679688 13.421875 -17.046875 C 12.941406 -17.410156 12.140625 -17.59375 11.015625 -17.59375 C 9.816406 -17.59375 8.675781 -17.328125 7.59375 -16.796875 C 6.519531 -16.265625 5.582031 -15.5625 4.78125 -14.6875 L 4.390625 -14.6875 L 2.125 -18.109375 C 3.21875 -19.316406 4.550781 -20.257812 6.125 -20.9375 C 7.707031 -21.613281 9.429688 -21.953125 11.296875 -21.953125 C 14.140625 -21.953125 16.195312 -21.347656 17.46875 -20.140625 C 18.75 -18.929688 19.390625 -17.210938 19.390625 -14.984375 L 19.390625 -5.625 C 19.390625 -4.664062 19.816406 -4.1875 20.671875 -4.1875 C 20.992188 -4.1875 21.3125 -4.242188 21.625 -4.359375 L 21.890625 -4.28125 L 22.28125 -0.515625 C 21.988281 -0.316406 21.570312 -0.15625 21.03125 -0.03125 C 20.5 0.09375 19.914062 0.15625 19.28125 0.15625 C 17.988281 0.15625 16.976562 -0.0859375 16.25 -0.578125 C 15.53125 -1.078125 15.015625 -1.851562 14.703125 -2.90625 L 14.296875 -2.953125 C 13.242188 -0.710938 11.28125 0.40625 8.40625 0.40625 Z M 10.125 -3.640625 C 11.375 -3.640625 12.367188 -4.054688 13.109375 -4.890625 C 13.859375 -5.734375 14.234375 -6.90625 14.234375 -8.40625 L 14.234375 -10.59375 L 13.875 -10.671875 C 13.539062 -10.410156 13.109375 -10.191406 12.578125 -10.015625 C 12.054688 -9.835938 11.300781 -9.664062 10.3125 -9.5 C 9.144531 -9.300781 8.300781 -8.960938 7.78125 -8.484375 C 7.269531 -8.015625 7.015625 -7.34375 7.015625 -6.46875 C 7.015625 -5.539062 7.285156 -4.835938 7.828125 -4.359375 C 8.378906 -3.878906 9.144531 -3.640625 10.125 -3.640625 Z M 10.125 -3.640625 "/></g></g></g><g fill="#000000" fill-opacity="1"><g transform="translate(182.431789, 193.617892)"><g><path d="M 8.953125 0.40625 C 7.003906 0.40625 5.519531 -0.113281 4.5 -1.15625 C 3.476562 -2.207031 2.96875 -3.800781 2.96875 -5.9375 L 2.96875 -30.203125 L 8.375 -30.203125 L 8.375 -6.15625 C 8.375 -4.84375 8.921875 -4.1875 10.015625 -4.1875 C 10.328125 -4.1875 10.660156 -4.238281 11.015625 -4.34375 L 11.296875 -4.265625 L 11.78125 -0.09375 C 11.476562 0.0625 11.078125 0.179688 10.578125 0.265625 C 10.085938 0.359375 9.546875 0.40625 8.953125 0.40625 Z M 8.953125 0.40625 "/></g></g></g><g fill="#000000" fill-opacity="1"><g transform="translate(194.813391, 193.617892)"><g><path d="M 8.40625 0.40625 C 7.019531 0.40625 5.816406 0.15625 4.796875 -0.34375 C 3.785156 -0.851562 3.003906 -1.597656 2.453125 -2.578125 C 1.910156 -3.566406 1.640625 -4.753906 1.640625 -6.140625 C 1.640625 -7.410156 1.910156 -8.476562 2.453125 -9.34375 C 3.003906 -10.207031 3.851562 -10.914062 5 -11.46875 C 6.144531 -12.03125 7.644531 -12.457031 9.5 -12.75 C 10.78125 -12.957031 11.753906 -13.1875 12.421875 -13.4375 C 13.097656 -13.6875 13.550781 -13.96875 13.78125 -14.28125 C 14.019531 -14.59375 14.140625 -14.988281 14.140625 -15.46875 C 14.140625 -16.15625 13.898438 -16.679688 13.421875 -17.046875 C 12.941406 -17.410156 12.140625 -17.59375 11.015625 -17.59375 C 9.816406 -17.59375 8.675781 -17.328125 7.59375 -16.796875 C 6.519531 -16.265625 5.582031 -15.5625 4.78125 -14.6875 L 4.390625 -14.6875 L 2.125 -18.109375 C 3.21875 -19.316406 4.550781 -20.257812 6.125 -20.9375 C 7.707031 -21.613281 9.429688 -21.953125 11.296875 -21.953125 C 14.140625 -21.953125 16.195312 -21.347656 17.46875 -20.140625 C 18.75 -18.929688 19.390625 -17.210938 19.390625 -14.984375 L 19.390625 -5.625 C 19.390625 -4.664062 19.816406 -4.1875 20.671875 -4.1875 C 20.992188 -4.1875 21.3125 -4.242188 21.625 -4.359375 L 21.890625 -4.28125 L 22.28125 -0.515625 C 21.988281 -0.316406 21.570312 -0.15625 21.03125 -0.03125 C 20.5 0.09375 19.914062 0.15625 19.28125 0.15625 C 17.988281 0.15625 16.976562 -0.0859375 16.25 -0.578125 C 15.53125 -1.078125 15.015625 -1.851562 14.703125 -2.90625 L 14.296875 -2.953125 C 13.242188 -0.710938 11.28125 0.40625 8.40625 0.40625 Z M 10.125 -3.640625 C 11.375 -3.640625 12.367188 -4.054688 13.109375 -4.890625 C 13.859375 -5.734375 14.234375 -6.90625 14.234375 -8.40625 L 14.234375 -10.59375 L 13.875 -10.671875 C 13.539062 -10.410156 13.109375 -10.191406 12.578125 -10.015625 C 12.054688 -9.835938 11.300781 -9.664062 10.3125 -9.5 C 9.144531 -9.300781 8.300781 -8.960938 7.78125 -8.484375 C 7.269531 -8.015625 7.015625 -7.34375 7.015625 -6.46875 C 7.015625 -5.539062 7.285156 -4.835938 7.828125 -4.359375 C 8.378906 -3.878906 9.144531 -3.640625 10.125 -3.640625 Z M 10.125 -3.640625 "/></g></g></g><g fill="#000000" fill-opacity="1"><g transform="translate(217.526021, 193.617892)"><g><path d="M 8.953125 0.40625 C 7.003906 0.40625 5.519531 -0.113281 4.5 -1.15625 C 3.476562 -2.207031 2.96875 -3.800781 2.96875 -5.9375 L 2.96875 -30.203125 L 8.375 -30.203125 L 8.375 -6.15625 C 8.375 -4.84375 8.921875 -4.1875 10.015625 -4.1875 C 10.328125 -4.1875 10.660156 -4.238281 11.015625 -4.34375 L 11.296875 -4.265625 L 11.78125 -0.09375 C 11.476562 0.0625 11.078125 0.179688 10.578125 0.265625 C 10.085938 0.359375 9.546875 0.40625 8.953125 0.40625 Z M 8.953125 0.40625 "/></g></g></g><g fill="#000000" fill-opacity="1"><g transform="translate(229.907623, 193.617892)"><g><path d="M 15.609375 0.40625 C 12.972656 0.40625 10.648438 -0.140625 8.640625 -1.234375 C 6.640625 -2.328125 5.070312 -3.96875 3.9375 -6.15625 C 2.8125 -8.351562 2.25 -11.0625 2.25 -14.28125 C 2.25 -17.5 2.8125 -20.203125 3.9375 -22.390625 C 5.070312 -24.585938 6.640625 -26.234375 8.640625 -27.328125 C 10.648438 -28.421875 12.972656 -28.96875 15.609375 -28.96875 C 18.359375 -28.96875 20.691406 -28.429688 22.609375 -27.359375 C 24.523438 -26.285156 25.894531 -24.644531 26.71875 -22.4375 L 22.59375 -19.921875 L 22.109375 -19.9375 C 21.492188 -21.425781 20.660156 -22.492188 19.609375 -23.140625 C 18.566406 -23.785156 17.234375 -24.109375 15.609375 -24.109375 C 13.234375 -24.109375 11.378906 -23.320312 10.046875 -21.75 C 8.722656 -20.175781 8.0625 -17.6875 8.0625 -14.28125 C 8.0625 -10.882812 8.722656 -8.398438 10.046875 -6.828125 C 11.378906 -5.253906 13.234375 -4.46875 15.609375 -4.46875 C 19.316406 -4.46875 21.585938 -6.273438 22.421875 -9.890625 L 22.90625 -9.890625 L 27.078125 -7.71875 C 26.296875 -5.007812 24.957031 -2.976562 23.0625 -1.625 C 21.175781 -0.269531 18.691406 0.40625 15.609375 0.40625 Z M 15.609375 0.40625 "/></g></g></g><g fill="#000000" fill-opacity="1"><g transform="translate(257.912698, 193.617892)"><g><path d="M 21.296875 -9.546875 L 7.4375 -9.546875 C 7.59375 -7.671875 8.125 -6.304688 9.03125 -5.453125 C 9.945312 -4.609375 11.195312 -4.1875 12.78125 -4.1875 C 14.007812 -4.1875 15.007812 -4.414062 15.78125 -4.875 C 16.550781 -5.332031 17.171875 -6.03125 17.640625 -6.96875 L 18.046875 -6.96875 L 21.640625 -4.671875 C 20.941406 -3.160156 19.878906 -1.9375 18.453125 -1 C 17.035156 -0.0625 15.144531 0.40625 12.78125 0.40625 C 10.550781 0.40625 8.625 -0.015625 7 -0.859375 C 5.382812 -1.703125 4.132812 -2.960938 3.25 -4.640625 C 2.375 -6.316406 1.9375 -8.359375 1.9375 -10.765625 C 1.9375 -13.210938 2.394531 -15.273438 3.3125 -16.953125 C 4.238281 -18.628906 5.488281 -19.878906 7.0625 -20.703125 C 8.644531 -21.535156 10.421875 -21.953125 12.390625 -21.953125 C 15.429688 -21.953125 17.757812 -21.144531 19.375 -19.53125 C 21 -17.914062 21.8125 -15.546875 21.8125 -12.421875 C 21.8125 -11.285156 21.773438 -10.40625 21.703125 -9.78125 Z M 16.640625 -13.046875 C 16.585938 -14.691406 16.207031 -15.882812 15.5 -16.625 C 14.789062 -17.375 13.753906 -17.75 12.390625 -17.75 C 9.648438 -17.75 8.039062 -16.179688 7.5625 -13.046875 Z M 16.640625 -13.046875 "/></g></g></g><g fill="#000000" fill-opacity="1"><g transform="translate(281.328385, 193.617892)"><g><path d="M 3.109375 0 L 3.109375 -21.546875 L 8.359375 -21.546875 L 8.359375 -18.34375 L 8.765625 -18.265625 C 9.285156 -19.460938 9.96875 -20.335938 10.8125 -20.890625 C 11.664062 -21.453125 12.695312 -21.734375 13.90625 -21.734375 C 15.132812 -21.734375 16.066406 -21.523438 16.703125 -21.109375 L 15.78125 -16.453125 L 15.375 -16.375 C 15.019531 -16.507812 14.679688 -16.609375 14.359375 -16.671875 C 14.035156 -16.742188 13.640625 -16.78125 13.171875 -16.78125 C 11.660156 -16.78125 10.503906 -16.25 9.703125 -15.1875 C 8.910156 -14.125 8.515625 -12.421875 8.515625 -10.078125 L 8.515625 0 Z M 3.109375 0 "/></g></g></g><g fill="#000000" fill-opacity="1"><g transform="translate(298.22127, 193.617892)"><g><path d="M 14.859375 -5.140625 L 16.265625 -1.140625 C 15.679688 -0.648438 14.945312 -0.269531 14.0625 0 C 13.175781 0.269531 12.175781 0.40625 11.0625 0.40625 C 8.726562 0.40625 6.953125 -0.226562 5.734375 -1.5 C 4.523438 -2.769531 3.921875 -4.613281 3.921875 -7.03125 L 3.921875 -17.265625 L 0.640625 -17.265625 L 0.640625 -21.5625 L 3.921875 -21.5625 L 3.921875 -25.765625 L 9.34375 -26.640625 L 9.34375 -21.5625 L 15.453125 -21.5625 L 15.453125 -17.265625 L 9.34375 -17.265625 L 9.34375 -7.421875 C 9.34375 -6.359375 9.5625 -5.582031 10 -5.09375 C 10.445312 -4.601562 11.09375 -4.359375 11.9375 -4.359375 C 12.894531 -4.359375 13.734375 -4.617188 14.453125 -5.140625 Z M 14.859375 -5.140625 "/></g></g></g><g fill="#000000" fill-opacity="1"><g transform="translate(314.957921, 193.617892)"><g><path d="M 5.796875 -24.125 C 4.828125 -24.125 4.035156 -24.421875 3.421875 -25.015625 C 2.804688 -25.609375 2.5 -26.375 2.5 -27.3125 C 2.5 -28.226562 2.804688 -28.984375 3.421875 -29.578125 C 4.035156 -30.171875 4.828125 -30.46875 5.796875 -30.46875 C 6.453125 -30.46875 7.03125 -30.332031 7.53125 -30.0625 C 8.039062 -29.789062 8.4375 -29.414062 8.71875 -28.9375 C 9 -28.457031 9.140625 -27.914062 9.140625 -27.3125 C 9.140625 -26.695312 9 -26.144531 8.71875 -25.65625 C 8.4375 -25.175781 8.039062 -24.800781 7.53125 -24.53125 C 7.03125 -24.257812 6.453125 -24.125 5.796875 -24.125 Z M 3.109375 0 L 3.109375 -21.546875 L 8.515625 -21.546875 L 8.515625 0 Z M 3.109375 0 "/></g></g></g><g fill="#000000" fill-opacity="1"><g transform="translate(326.558338, 193.617892)"><g><path d="M 3.765625 0 L 3.765625 -17.265625 L 0.71875 -17.265625 L 0.71875 -21.5625 L 3.765625 -21.5625 C 3.546875 -22.476562 3.4375 -23.332031 3.4375 -24.125 C 3.4375 -25.488281 3.75 -26.65625 4.375 -27.625 C 5 -28.59375 5.894531 -29.332031 7.0625 -29.84375 C 8.238281 -30.351562 9.632812 -30.609375 11.25 -30.609375 C 13.632812 -30.609375 15.410156 -30.195312 16.578125 -29.375 L 15.3125 -25.390625 L 14.90625 -25.3125 C 14.09375 -25.882812 13.054688 -26.171875 11.796875 -26.171875 C 10.816406 -26.171875 10.082031 -25.929688 9.59375 -25.453125 C 9.113281 -24.984375 8.875 -24.335938 8.875 -23.515625 C 8.875 -23.160156 8.894531 -22.835938 8.9375 -22.546875 C 8.976562 -22.253906 9.0625 -21.925781 9.1875 -21.5625 L 15.328125 -21.5625 L 15.328125 -17.265625 L 9.1875 -17.265625 L 9.1875 0 Z M 3.765625 0 "/></g></g></g><g fill="#000000" fill-opacity="1"><g transform="translate(342.103694, 193.617892)"><g><path d="M 4.765625 9.140625 C 3.835938 9.140625 3 9.066406 2.25 8.921875 C 1.507812 8.785156 0.90625 8.597656 0.4375 8.359375 L 1.296875 3.984375 L 1.640625 3.875 C 1.960938 4.039062 2.363281 4.175781 2.84375 4.28125 C 3.332031 4.382812 3.832031 4.4375 4.34375 4.4375 C 5.207031 4.4375 5.929688 4.320312 6.515625 4.09375 C 7.097656 3.863281 7.585938 3.484375 7.984375 2.953125 C 8.390625 2.429688 8.75 1.703125 9.0625 0.765625 L 0.46875 -21.546875 L 6.140625 -21.546875 L 11.484375 -6.5625 L 11.953125 -6.5625 L 17.171875 -21.546875 L 22.671875 -21.546875 L 14.03125 1.34375 C 13.332031 3.195312 12.570312 4.6875 11.75 5.8125 C 10.925781 6.9375 9.945312 7.769531 8.8125 8.3125 C 7.6875 8.863281 6.335938 9.140625 4.765625 9.140625 Z M 4.765625 9.140625 "/></g></g></g></svg>